<?xml version="1.0" encoding="iso-8859-1"?>
<!-- Generator: Adobe Illustrator 16.0.0, SVG Export Plug-In . SVG Version: 6.00 Build 0)  -->
<!DOCTYPE svg PUBLIC "-//W3C//DTD SVG 1.1//EN" "http://www.w3.org/Graphics/SVG/1.1/DTD/svg11.dtd">
<svg t="1631152160858" class="icon" viewBox="0 0 1024 1024" version="1.1"
    xmlns="http://www.w3.org/2000/svg" p-id="1438" width="200" height="200">
    <path d="M758.601444 391.132188c-40.301891-100.040461-138.056286-166.519548-246.601444-166.519547-108.519576 0-206.299553 66.485227-246.614747 166.519547-103.960747 0.173962-188.491978 84.807524-188.491979 188.81432 0 145.608286 148.254555 219.439828 440.642813 219.439828 289.054325 0 429.569616-71.777767 429.569615-219.439828 0.001023-104.011912-84.530209-188.646498-188.504258-188.81432zM517.536087 773.015735c-274.889721 0-414.273235-64.959477-414.273235-193.069227 0-89.263 72.363098-161.935136 161.504324-162.443719l18.052145 2.594081 3.61841-10.133801c33.954323-95.089705 124.588553-158.979828 225.562269-158.979828 101.012601 0 191.672414 63.922868 225.575572 159.069879l3.656273 10.249435 18.065447-2.800789c89.11462 0.553609 161.439856 73.213465 161.439856 162.443719-0.001023 47.75156-0.001023 193.07025-403.201061 193.07025z" p-id="1439"></path>
    <path d="M445.209828 390.029064l8.614191 23.216771a149.695371 149.695371 0 0 1 6.91141-2.059915c0.626263-0.197498 1.234107-0.435928 1.865488-0.62524l-7.16826-23.959691c-3.39533 1.016143-6.835685 2.168386-10.222829 3.428075zM425.560302 398.805962l11.151991 21.190624a150.868079 150.868079 0 0 1 8.476045-3.635807l-9.948583-22.257933a164.800393 164.800393 0 0 0-9.679453 4.703116zM407.191956 410.028561l13.252838 18.845207c2.616594-1.644453 5.270027-3.236718 7.993045-4.721535l-12.241812-20.029172a167.929664 167.929664 0 0 0-9.004071 5.9055zM465.84889 383.841132l5.610788 24.370037a135.958508 135.958508 0 0 1 8.971326-1.763157l-3.984755-24.682145a164.29488 164.29488 0 0 0-10.597359 2.075265zM412.69018 434.095699l-14.090926-17.610076a164.139338 164.139338 0 0 0-8.19259 7.012717l14.854313 16.260336a151.516856 151.516856 0 0 1 7.429203-5.662977zM364.469945 491.713978l-16.767895-6.757914a167.689187 167.689187 0 0 0-3.705392 10.138918l16.629749 5.477758c1.197268-2.997264 2.462075-5.960759 3.843538-8.858762zM507.901659 404.617317c3.076058 0.082888 6.128581 0.268106 9.156544 0.546446l2.290159-24.89704a168.180374 168.180374 0 0 0-10.754948-0.644683l-0.691755 24.995277zM357.318058 509.680165l-16.354479-4.251837a165.482939 165.482939 0 0 0-2.368954 10.524704l15.986089 3.057639c0.804319-3.154853 1.736551-6.257517 2.737344-9.330506zM375.46537 438.985056l16.004509 13.585413a150.128229 150.128229 0 0 1 6.704703-6.633071l-15.486716-14.93106a174.171831 174.171831 0 0 0-7.222496 7.978718zM373.8465 474.948129l-16.819061-9.449209a169.653935 169.653935 0 0 0-4.973268 9.572006l16.85283 8.083096a150.235676 150.235676 0 0 1 4.939499-8.205893zM385.141754 459.613886l-16.383132-12.184507a171.185824 171.185824 0 0 0-6.148024 8.844435l16.641005 10.805091a150.937664 150.937664 0 0 1 5.890151-7.465019zM592.637552 435.488419a141.321656 141.321656 0 0 1 6.999414 5.918803l16.754593-18.558681a168.290891 168.290891 0 0 0-8.227382-6.964622l-15.526625 19.6045zM526.157441 406.297586c3.032056 0.473791 6.03546 1.045819 8.999978 1.708922l5.465479-24.399713a166.509315 166.509315 0 0 0-10.593266-2.01182l-3.872191 24.702611zM571.32413 393.683291l-10.064216 22.895453a138.770554 138.770554 0 0 1 8.28264 3.961218l11.511172-22.202675a171.721013 171.721013 0 0 0-9.729596-4.653996zM551.062668 386.29809l-7.029091 23.998577c2.936889 0.860601 5.838985 1.812275 8.696056 2.852978l8.585539-23.481808a167.612439 167.612439 0 0 0-10.252504-3.369747zM590.465073 403.601174l-12.907985 21.420869a138.969075 138.969075 0 0 1 7.687076 4.976338l14.284332-20.522406a168.405501 168.405501 0 0 0-9.063423-5.874801zM352.512612 528.548908l-15.601326-1.953492a168.599929 168.599929 0 0 0-0.997723 10.71504l15.116279 0.929162c0.391926-3.264347 0.88516-6.493901 1.48277-9.69071zM487.10603 380.363937l2.441609 24.88783c3.028986-0.297782 6.085602-0.49835 9.1678-0.60989l-0.87595-24.986068c-3.590781 0.122797-7.203052 0.361227-10.733459 0.708128zM349.910345 556.327578c0-2.78237 0.086981-5.542226 0.236384-8.286734l-14.548345 0.033769c0.00614 3.580548 0.128937 7.198959 0.360204 10.754949l13.989619-0.914836c-0.00307-0.532119-0.037862-1.056052-0.037862-1.587148zM358.607424 606.782713l-10.646478 4.327562a166.477592 166.477592 0 0 0 4.380774 9.841136l9.951653-4.820796a149.193951 149.193951 0 0 1-3.685949-9.347902zM366.629121 625.229854l-9.283433 5.254677a165.977195 165.977195 0 0 0 5.607718 9.200547l8.578375-5.619998c-1.739621-2.877537-3.354398-5.835915-4.90266-8.835226zM353.167528 587.517951l-12.028964 3.168156a165.91682 165.91682 0 0 0 3.084245 10.333346l11.359722-3.798513a149.095713 149.095713 0 0 1-2.415003-9.702989zM350.389252 567.80805l-13.390985 1.740644c0.460488 3.536546 1.041726 7.116071 1.727341 10.627035l12.719696-2.485611a151.504576 151.504576 0 0 1-1.056052-9.882068zM377.088334 642.530892l-7.963369 5.958712c2.134617 2.851954 4.400217 5.680373 6.735402 8.41567l7.318686-6.259564a149.614529 149.614529 0 0 1-6.090719-8.114818zM383.104351 664.851247a167.050644 167.050644 0 0 0 7.756661 7.492648l6.124488-6.762008a151.824871 151.824871 0 0 1-7.172353-7.234774l-6.708796 6.504134zM399.063835 679.317727a169.280428 169.280428 0 0 0 8.639774 6.441712l5.009084-7.183609c-2.768043-1.988284-5.487991-4.036943-8.111748-6.203283l-5.53711 6.94518z" p-id="1440"></path>
</svg>
